HIERARCHY
ROOT Hips
{
  OFFSET 16.6969 103.786 -145.041
  CHANNELS 6 Xposition Yposition Zposition Zrotation Xrotation Yrotation
  JOINT RightUpLeg
  {
    OFFSET -8.9458 -8.66707 0.101652
    CHANNELS 3 Zrotation Xrotation Yrotation
    JOINT RightLeg
    {
      OFFSET 0 -44.4227 1.3727
      CHANNELS 3 Zrotation Xrotation Yrotation
      JOINT RightFoot
      {
        OFFSET 0.253549 -42.0924 -1.46059
        CHANNELS 3 Zrotation Xrotation Yrotation
        JOINT RightToes
        {
          OFFSET 0.04 -4.41509 8.4991
          CHANNELS 3 Zrotation Xrotation Yrotation
          End Site
          {
            OFFSET -0.08 -0.137448 9.77979
          }
        }
      }
    }
  }
  JOINT Spine
  {
    OFFSET 0 11.8905 0
    CHANNELS 3 Zrotation Xrotation Yrotation
    JOINT Spine1
    {
      OFFSET 0 25.6574 0.127663
      CHANNELS 3 Zrotation Xrotation Yrotation
      JOINT HEad
      {
        OFFSET 0 8.73416 0.011341
        CHANNELS 3 Zrotation Xrotation Yrotation
        End Site
        {
          OFFSET -0.29 12.7742 2.51395
        }
      }
      JOINT LeftShoulder1
      {
        OFFSET 8.99 -0.362252 -0.22
        CHANNELS 3 Zrotation Xrotation Yrotation
        JOINT LeftArm
        {
          OFFSET 10.2827 -0.00338 0.322123
          CHANNELS 3 Zrotation Xrotation Yrotation
          JOINT LeftForeArm
          {
            OFFSET 32.7669 0.099144 -1.42434
            CHANNELS 3 Zrotation Xrotation Yrotation
            JOINT LeftHand
            {
              OFFSET 27.5643 0.085362 1.02216
              CHANNELS 3 Zrotation Xrotation Yrotation
              End Site
              {
                OFFSET 16.7443 -0.6 1.50291
              }
            }
          }
        }
      }
      JOINT RightShoulder
      {
        OFFSET -8.99 -0.362252 -0.22
        CHANNELS 3 Zrotation Xrotation Yrotation
        JOINT RightArm
        {
          OFFSET -10.2827 -0.00338 0.322123
          CHANNELS 3 Zrotation Xrotation Yrotation
          JOINT RightForeArm
          {
            OFFSET -32.8971 0.099144 -1.42434
            CHANNELS 3 Zrotation Xrotation Yrotation
            JOINT RightHand
            {
              OFFSET -27.4921 0.085362 1.02216
              CHANNELS 3 Zrotation Xrotation Yrotation
              End Site
              {
                OFFSET -16.6312 -0.6 1.50291
              }
            }
          }
        }
      }
    }
  }
  JOINT LeftUpLeg
  {
    OFFSET 8.9458 -8.66707 0.101652
    CHANNELS 3 Zrotation Xrotation Yrotation
    JOINT LeftLeg
    {
      OFFSET 0 -44.4227 1.3727
      CHANNELS 3 Zrotation Xrotation Yrotation
      JOINT LeftFoot
      {
        OFFSET -0.253549 -42.0924 -1.46059
        CHANNELS 3 Zrotation Xrotation Yrotation
        JOINT LeftToes
        {
          OFFSET -0.04 -4.41509 8.4991
          CHANNELS 3 Zrotation Xrotation Yrotation
          End Site
          {
            OFFSET 0.08 -0.047448 9.77979
          }
        }
      }
    }
  }
}
MOTION
Frames:	9
Frame Time:	0.0166667
18.3138 102.834 -49.9102 -5.62554 -0.00127589 -1.57655 1.35974 5.22102 -1.88154 9.89121 19.7265 1.09211 3.14483 -10.2514 0.0655611 -2.40126 -1.13218 6.67251 4.28662 3.99545 1.48655 12.5205 2.90243 -0.737591 -9.78774 13.4349 11.5809 -3.72721e-016 1.59028e-015 -3.97569e-016 -82.0405 -62.0529 10.1637 -7.14689 14.0686 -23.2229 0.368473 9.90896 -0.00117927 -8.77651 0.0803309 6.90945 91.2303 -41.9188 9.82531 13.4721 14.5859 17.4484 -0.369625 9.91382 0.00119886 9.22587 -16.5409 -0.379307 -10.0131 14.2666 -3.17102 0.343924 4.69107 0.0244029 -1.90592 12.7523 2.48972 
18.5499 103.054 -48.7696 -5.72855 0.114015 -1.79217 1.16732 5.53764 -2.12016 9.85499 19.909 1.47791 3.31906 -9.14869 0.0530674 -2.65699 -0.144267 7.32966 4.20204 4.0301 1.42007 12.1527 2.50449 -0.670589 -9.75548 13.7542 11.9234 3.50358e-015 -1.59028e-015 -0 -81.5402 -62.1387 10.4404 -7.20545 14.0804 -23.2594 0.368473 9.90896 -0.00117927 -8.87922 0.0711274 6.93587 91.3982 -42.0034 9.51607 13.508 14.6077 17.5498 -0.369625 9.91382 0.00119886 9.20734 -15.7382 -0.76604 -10.1263 13.8894 -2.62567 0.412284 4.47204 0.0201798 -1.62473 12.1673 2.18279 
18.7945 103.277 -47.6442 -5.88618 0.248558 -2.03082 1.01495 5.79457 -2.34577 9.8382 20.1025 1.87663 3.49444 -7.93314 0.0333441 -2.90952 0.846743 7.97513 4.08168 4.07643 1.37608 11.9204 2.10419 -0.615242 -9.78059 14.0287 12.2386 -1.44119e-015 0 3.97569e-016 -81.1567 -62.241 10.6591 -7.27622 14.0977 -23.3358 0.368473 9.90896 -0.00117927 -9.05149 0.0555047 6.95295 91.5966 -42.0082 9.3591 13.5247 14.6013 17.4133 -0.369625 9.91382 0.00119886 9.26957 -14.92 -1.12517 -10.2325 13.4418 -1.99967 0.475141 4.28212 0.0159958 -1.2027 11.5321 1.72522 
19.0546 103.455 -46.5358 -6.11775 0.383475 -2.19429 0.890443 5.95393 -2.70237 9.87814 20.4767 2.20362 3.80119 -6.69077 0.0137912 -3.37722 1.80124 9.11358 3.99586 4.11977 1.34054 11.7556 1.73193 -0.566709 -9.61061 14.1744 12.3598 -6.4605e-016 7.95139e-016 -0 -81.0164 -62.2708 10.6667 -7.28654 14.1064 -23.4527 0.368473 9.90896 -0.00117927 -9.05279 0.0550912 6.89534 91.6049 -41.9021 9.34731 13.5596 14.5697 17.0716 -0.369625 9.91382 0.00119886 9.39313 -14.2857 -0.966043 -10.2358 13.3831 -1.97075 0.536915 4.10014 0.0120278 -0.877872 10.8523 1.36858 
19.3073 103.6 -45.4495 -6.37797 0.51568 -2.29001 0.770649 6.01088 -3.08822 10.0122 21.0178 2.43683 4.0897 -5.46049 -0.00899651 -3.84048 2.94169 10.1818 3.92162 4.15865 1.30718 11.6101 1.41603 -0.526295 -9.35531 14.2235 12.3666 -3.13086e-015 0 -0 -81.1205 -62.2204 10.3846 -7.26855 14.1098 -23.5788 0.368473 9.90896 -0.00117927 -8.98774 0.0605216 6.81441 91.5602 -41.7873 9.40079 13.5771 14.5284 16.6961 -0.369625 9.91382 0.00119886 9.55752 -13.7396 -0.640174 -10.2462 13.4814 -2.20556 0.605716 3.87483 0.00841959 -0.698246 10.189 1.15747 
19.5292 103.705 -44.3861 -6.62474 0.64373 -2.27041 0.613609 5.93229 -3.46886 10.3265 21.8011 2.53648 4.24121 -4.34919 -0.0361996 -4.05842 4.65447 10.6239 3.87267 4.18401 1.26293 11.4058 1.18818 -0.49264 -9.03932 14.1656 12.2661 3.47873e-016 -1.59028e-015 -0 -81.5157 -62.0224 9.65297 -7.24073 14.1077 -23.673 0.368473 9.90896 -0.00117927 -8.88765 0.0691458 6.74818 91.5234 -41.7617 9.4195 13.5521 14.4943 16.4733 -0.369625 9.91382 0.00119886 9.75816 -13.275 -0.287568 -10.3509 13.6916 -2.70941 0.710305 3.5025 0.00517589 -0.920131 9.63063 1.35846 
19.7278 103.793 -43.3602 -6.86904 0.743887 -2.2023 0.458131 5.76607 -3.78593 10.7276 22.7301 2.46645 4.29327 -3.23889 -0.0671549 -4.22198 6.4272 10.9361 3.80931 4.20394 1.21417 11.1635 1.06864 -0.46889 -8.67387 14.0421 12.1114 -7.95139e-016 1.59028e-015 -7.95139e-016 -82.1514 -61.7521 8.59661 -7.17167 14.0966 -23.7653 0.368473 9.90896 -0.00117927 -8.73195 0.0824509 6.67136 91.505 -41.8055 9.45701 13.4941 14.4711 16.3899 -0.369625 9.91382 0.00119886 9.97256 -12.8257 -0.0404808 -10.4962 13.9066 -3.15065 0.793109 3.11919 0.00289453 -1.12764 9.1018 1.55194 
19.8989 103.888 -42.3942 -7.11155 0.770417 -2.14531 0.335592 5.58461 -3.98811 11.1561 23.692 2.14521 4.22229 -2.01504 -0.102917 -4.56502 7.83226 11.6411 3.68069 4.22303 1.16272 10.8758 1.13142 -0.462395 -8.3015 13.8798 11.9812 1.14301e-015 -7.95139e-016 7.95139e-016 -83.0504 -61.4894 7.23728 -7.0055 14.0672 -23.8845 0.368473 9.90896 -0.00117927 -8.49836 0.102348 6.57829 91.5579 -41.9534 9.56623 13.3848 14.4675 16.5135 -0.369625 9.91382 0.00119886 10.1916 -12.2902 -0.211455 -10.6917 13.9496 -3.01339 0.773125 2.87166 0.00170736 -0.868059 8.52221 1.26597 
20.0545 103.972 -41.4646 -7.33834 0.787759 -2.07336 0.235724 5.28142 -4.02086 11.6271 24.8078 1.65592 4.09358 -0.774292 -0.139541 -4.79785 8.98427 12.0732 3.5339 4.24268 1.10914 10.5494 1.24684 -0.459214 -7.85264 13.7117 11.8063 -9.93923e-016 0 -7.95139e-016 -84.0486 -61.1459 5.71437 -6.83414 14.0366 -23.9932 0.368473 9.90896 -0.00117927 -8.22329 0.124925 6.44822 91.6171 -42.1398 9.65034 13.2821 14.4838 16.7888 -0.369625 9.91382 0.00119886 10.3931 -11.7697 -0.394861 -10.8632 13.9936 -2.84857 0.749663 2.62408 0.000831887 -0.566968 7.99434 0.934139 
